<svg width="72" height="72" viewBox="0 0 72 72" fill="none" xmlns="http://www.w3.org/2000/svg">
<path d="M36.111 0H35.8924C31.2141 0 27.1211 3.10075 25.8061 7.59045C24.5785 11.7741 22.3184 15.7156 19.0157 19.0148C15.713 22.314 11.7713 24.5773 7.58744 25.8048C3.1009 27.1198 0 31.2127 0 35.8907V36.1093C0 40.7873 3.1009 44.8802 7.58744 46.1952C11.7713 47.4227 15.7164 49.686 19.0157 52.9852C22.315 56.2844 24.5785 60.2293 25.8061 64.4129C27.1211 68.9026 31.2141 72 35.8924 72H36.111C40.7892 72 44.8823 68.8993 46.1973 64.4096C47.4249 60.2259 49.685 56.281 52.9843 52.9818C56.2836 49.6827 60.2287 47.4193 64.4092 46.1952C68.8991 44.8802 72 40.784 72 36.1059V35.8907C72 31.2127 68.8991 27.1198 64.4092 25.8015C60.2253 24.574 56.2836 22.314 52.9843 19.0148C49.685 15.7156 47.4215 11.7708 46.1973 7.59045C44.8823 3.10075 40.7892 0 36.111 0ZM59.0314 35.9109V36.0891C59.0314 39.0755 57.0437 41.6819 54.1782 42.5227C51.5011 43.3063 48.9787 44.7558 46.87 46.8644C44.7578 48.9764 43.3117 51.4987 42.528 54.1724C41.6872 57.0377 39.0841 59.0253 36.0942 59.0253H35.9159C32.9294 59.0253 30.3229 57.0377 29.4821 54.1724C28.6984 51.4954 27.2489 48.9731 25.1401 46.8644C23.0314 44.7558 20.5056 43.3063 17.8285 42.5227C14.963 41.6819 12.9753 39.0789 12.9753 36.0925V35.9109C12.9753 32.9245 14.963 30.3215 17.8285 29.4807C20.5056 28.6971 23.028 27.2476 25.1401 25.139C27.2522 23.027 28.6984 20.5046 29.4821 17.831C30.3229 14.9623 32.9294 12.9781 35.9159 12.9781H36.0942C39.0841 12.9781 41.6872 14.9657 42.528 17.8344C43.3117 20.5114 44.7578 23.0337 46.87 25.1423C48.9821 27.2543 51.5045 28.7005 54.1782 29.484C57.0437 30.3248 59.0314 32.9278 59.0314 35.9176V35.9109Z" fill="url(#paint0_linear_0_7320)"/>
<defs>
<linearGradient id="paint0_linear_0_7320" x1="19.6834" y1="64.2597" x2="52.3166" y2="7.73453" gradientUnits="userSpaceOnUse">
<stop stop-color="#155EEF"/>
<stop offset="1" stop-color="#2E90FA"/>
</linearGradient>
</defs>
</svg>
